<?xml version="1.0" encoding="UTF-8"?>
<svg width="20px" height="20px" viewBox="0 0 20 20" version="1.1" xmlns="http://www.w3.org/2000/svg" xmlns:xlink="http://www.w3.org/1999/xlink">
    <!-- Generator: Sketch 43.2 (39069) - http://www.bohemiancoding.com/sketch -->
    <title>Shape</title>
    <desc>Created with Sketch.</desc>
    <defs></defs>
    <g id="Page-1" stroke="none" stroke-width="1" fill="none" fill-rule="evenodd">
        <g id="expanded" transform="translate(-832.000000, -40.000000)" fill-rule="nonzero" fill="#888888">
            <g id="Group-17" transform="translate(152.000000, 20.000000)">
                <g id="Group-10">
                    <path d="M690,21.3333333 C694.777778,21.3333333 698.666667,25.2222222 698.666667,30 C698.666667,34.7777778 694.777778,38.6666667 690,38.6666667 C685.222222,38.6666667 681.333333,34.7777778 681.333333,30 C681.333333,25.2222222 685.222222,21.3333333 690,21.3333333 L690,21.3333333 Z M690,20 C684.466667,20 680,24.4666667 680,30 C680,35.5333333 684.466667,40 690,40 C695.533333,40 700,35.5333333 700,30 C700,24.4666667 695.533333,20 690,20 L690,20 Z M690.666667,34.4888889 L690.666667,28.9777778 C690.666667,28.6 690.377778,28.3111111 690,28.3111111 C689.622222,28.3111111 689.333333,28.6 689.333333,28.9777778 L689.333333,34.4888889 C689.333333,34.8666667 689.622222,35.1555556 690,35.1555556 C690.377778,35.1555556 690.666667,34.8444444 690.666667,34.4888889 Z M690,24.9333333 C689.511111,24.9333333 689.111111,25.3333333 689.111111,25.8222222 C689.111111,26.3111111 689.511111,26.7111111 690,26.7111111 C690.488889,26.7111111 690.888889,26.3111111 690.888889,25.8222222 C690.888889,25.3333333 690.488889,24.9333333 690,24.9333333 Z" id="Shape"></path>
                </g>
            </g>
        </g>
    </g>
</svg>